<?xml version="1.0" standalone="no"?>
<!DOCTYPE svg PUBLIC "-//W3C//DTD SVG 1.1//EN"
"http://www.w3.org/Graphics/SVG/1.1/DTD/svg11.dtd">

<svg width="1846" height="551" view_box="0 0 1846 551"
xmlns="http://www.w3.org/2000/svg"
xmlns:link="http://www.w3.org/1999/xlink">\n\n<desc>Généré par Mocodo 2.3.7 le Mon, 20 Sep 2021 04:50:27</desc>

<rect id="frame" x="0" y="0" width="1846" height="551" fill="#f5f5f5" stroke="none" stroke-width="0"/>

<!-- Association is written by -->
<line x1="325" y1="238" x2="54" y2="517" stroke="#bf812d" stroke-width="2"/>
<text x="253" y="283.253975518" fill="#01665e" font-family="Verdana" font-size="12">0,N</text>
<line x1="778" y1="238" x2="54" y2="517" stroke="#bf812d" stroke-width="2"/>
<text x="709" y="249.586016087" fill="#01665e" font-family="Verdana" font-size="12">1,1</text>
<g id="association-is written by">
	<path d="M 85 492 a 14 14 90 0 1 14 14 V 517 h -90 V 506 a 14 14 90 0 1 14 -14" fill="#dfc27d" stroke="#dfc27d" stroke-width="0"/>
	<path d="M 99 517.0 v 11 a 14 14 90 0 1 -14 14 H 23 a 14 14 90 0 1 -14 -14 V 517.0 H 90" fill="#f6e8c3" stroke="#f6e8c3" stroke-width="0"/>
	<rect x="9" y="492" width="90" height="50" fill="none" rx="14" stroke="#bf812d" stroke-width="2"/>
	<line x1="9" y1="517" x2="99" y2="517" stroke="#bf812d" stroke-width="1"/>
	<text x="16" y="509.7" fill="#000000" font-family="Verdana" font-size="12">is written by</text>
</g>

<!-- Association u_is connected to -->
<line x1="925" y1="238" x2="778" y2="517" stroke="#bf812d" stroke-width="2"/>
<text x="903.759699651" y="297" fill="#01665e" font-family="Verdana" font-size="12">0,N</text>
<line x1="325" y1="238" x2="778" y2="517" stroke="#bf812d" stroke-width="2"/>
<text x="375" y="262.47364252" fill="#01665e" font-family="Verdana" font-size="12">0,N</text>
<g id="association-u_is connected to">
	<path d="M 825 492 a 14 14 90 0 1 14 14 V 517 h -122 V 506 a 14 14 90 0 1 14 -14" fill="#dfc27d" stroke="#dfc27d" stroke-width="0"/>
	<path d="M 839 517.0 v 11 a 14 14 90 0 1 -14 14 H 731 a 14 14 90 0 1 -14 -14 V 517.0 H 122" fill="#f6e8c3" stroke="#f6e8c3" stroke-width="0"/>
	<rect x="717" y="492" width="122" height="50" fill="none" rx="14" stroke="#bf812d" stroke-width="2"/>
	<line x1="717" y1="517" x2="839" y2="517" stroke="#bf812d" stroke-width="1"/>
	<text x="724" y="509.7" fill="#000000" font-family="Verdana" font-size="12">u_is connected to</text>
</g>

<!-- Association s_is created by -->
<line x1="325" y1="238" x2="185" y2="517" stroke="#bf812d" stroke-width="2"/>
<text x="253" y="323.600918647" fill="#01665e" font-family="Verdana" font-size="12">0,N</text>
<line x1="471" y1="238" x2="185" y2="517" stroke="#bf812d" stroke-width="2"/>
<text x="393" y="287.674389618" fill="#01665e" font-family="Verdana" font-size="12">1,1</text>
<g id="association-s_is created by">
	<path d="M 225 492 a 14 14 90 0 1 14 14 V 517 h -108 V 506 a 14 14 90 0 1 14 -14" fill="#dfc27d" stroke="#dfc27d" stroke-width="0"/>
	<path d="M 239 517.0 v 11 a 14 14 90 0 1 -14 14 H 145 a 14 14 90 0 1 -14 -14 V 517.0 H 108" fill="#f6e8c3" stroke="#f6e8c3" stroke-width="0"/>
	<rect x="131" y="492" width="108" height="50" fill="none" rx="14" stroke="#bf812d" stroke-width="2"/>
	<line x1="131" y1="517" x2="239" y2="517" stroke="#bf812d" stroke-width="1"/>
	<text x="138" y="509.7" fill="#000000" font-family="Verdana" font-size="12">s_is created by</text>
</g>

<!-- Association u_participed to -->
<line x1="325" y1="238" x2="1606" y2="517" stroke="#bf812d" stroke-width="2"/>
<text x="375" y="241.46768425" fill="#01665e" font-family="Verdana" font-size="12">0,N</text>
<line x1="1352" y1="238" x2="1606" y2="517" stroke="#bf812d" stroke-width="2"/>
<text x="1355.36233307" y="280" fill="#01665e" font-family="Verdana" font-size="12">1,1</text>
<g id="association-u_participed to">
	<path d="M 1645 492 a 14 14 90 0 1 14 14 V 517 h -106 V 506 a 14 14 90 0 1 14 -14" fill="#dfc27d" stroke="#dfc27d" stroke-width="0"/>
	<path d="M 1659 517.0 v 11 a 14 14 90 0 1 -14 14 H 1567 a 14 14 90 0 1 -14 -14 V 517.0 H 106" fill="#f6e8c3" stroke="#f6e8c3" stroke-width="0"/>
	<rect x="1553" y="492" width="106" height="50" fill="none" rx="14" stroke="#bf812d" stroke-width="2"/>
	<line x1="1553" y1="517" x2="1659" y2="517" stroke="#bf812d" stroke-width="1"/>
	<text x="1560" y="509.7" fill="#000000" font-family="Verdana" font-size="12">u_participed to</text>
</g>

<!-- Association s_is connected to -->
<line x1="925" y1="238" x2="471" y2="517" stroke="#bf812d" stroke-width="2"/>
<text x="859" y="258.715797912" fill="#01665e" font-family="Verdana" font-size="12">0,N</text>
<line x1="471" y1="238" x2="471" y2="517" stroke="#bf812d" stroke-width="2"/>
<text x="476.0" y="484" fill="#01665e" font-family="Verdana" font-size="12">1,N</text>
<g id="association-s_is connected to">
	<path d="M 517 492 a 14 14 90 0 1 14 14 V 517 h -120 V 506 a 14 14 90 0 1 14 -14" fill="#dfc27d" stroke="#dfc27d" stroke-width="0"/>
	<path d="M 531 517.0 v 11 a 14 14 90 0 1 -14 14 H 425 a 14 14 90 0 1 -14 -14 V 517.0 H 120" fill="#f6e8c3" stroke="#f6e8c3" stroke-width="0"/>
	<rect x="411" y="492" width="120" height="50" fill="none" rx="14" stroke="#bf812d" stroke-width="2"/>
	<line x1="411" y1="517" x2="531" y2="517" stroke="#bf812d" stroke-width="1"/>
	<text x="418" y="509.7" fill="#000000" font-family="Verdana" font-size="12">s_is connected to</text>
</g>

<!-- Association cs_is created for -->
<line x1="778" y1="238" x2="1069" y2="517" stroke="#bf812d" stroke-width="2"/>
<text x="826" y="278.087326465" fill="#01665e" font-family="Verdana" font-size="12">1,1</text>
<line x1="471" y1="238" x2="1069" y2="517" stroke="#bf812d" stroke-width="2"/>
<text x="528" y="257.91361135" fill="#01665e" font-family="Verdana" font-size="12">0,N</text>
<g id="association-cs_is created for">
	<path d="M 1113 492 a 14 14 90 0 1 14 14 V 517 h -116 V 506 a 14 14 90 0 1 14 -14" fill="#dfc27d" stroke="#dfc27d" stroke-width="0"/>
	<path d="M 1127 517.0 v 11 a 14 14 90 0 1 -14 14 H 1025 a 14 14 90 0 1 -14 -14 V 517.0 H 116" fill="#f6e8c3" stroke="#f6e8c3" stroke-width="0"/>
	<rect x="1011" y="492" width="116" height="50" fill="none" rx="14" stroke="#bf812d" stroke-width="2"/>
	<line x1="1011" y1="517" x2="1127" y2="517" stroke="#bf812d" stroke-width="1"/>
	<text x="1018" y="509.7" fill="#000000" font-family="Verdana" font-size="12">cs_is created for</text>
</g>

<!-- Association ce_is created for -->
<line x1="778" y1="238" x2="1217" y2="517" stroke="#bf812d" stroke-width="2"/>
<text x="826" y="262.223977365" fill="#01665e" font-family="Verdana" font-size="12">1,1</text>
<line x1="624" y1="238" x2="1217" y2="517" stroke="#bf812d" stroke-width="2"/>
<text x="689" y="261.912416005" fill="#01665e" font-family="Verdana" font-size="12">0,N</text>
<g id="association-ce_is created for">
	<path d="M 1261 492 a 14 14 90 0 1 14 14 V 517 h -116 V 506 a 14 14 90 0 1 14 -14" fill="#dfc27d" stroke="#dfc27d" stroke-width="0"/>
	<path d="M 1275 517.0 v 11 a 14 14 90 0 1 -14 14 H 1173 a 14 14 90 0 1 -14 -14 V 517.0 H 116" fill="#f6e8c3" stroke="#f6e8c3" stroke-width="0"/>
	<rect x="1159" y="492" width="116" height="50" fill="none" rx="14" stroke="#bf812d" stroke-width="2"/>
	<line x1="1159" y1="517" x2="1275" y2="517" stroke="#bf812d" stroke-width="1"/>
	<text x="1166" y="509.7" fill="#000000" font-family="Verdana" font-size="12">ce_is created for</text>
</g>

<!-- Association e_is connected to -->
<line x1="925" y1="238" x2="624" y2="517" stroke="#bf812d" stroke-width="2"/>
<text x="859" y="272.841467526" fill="#01665e" font-family="Verdana" font-size="12">0,N</text>
<line x1="624" y1="238" x2="624" y2="517" stroke="#bf812d" stroke-width="2"/>
<text x="629.0" y="416" fill="#01665e" font-family="Verdana" font-size="12">1,N</text>
<g id="association-e_is connected to">
	<path d="M 671 492 a 14 14 90 0 1 14 14 V 517 h -122 V 506 a 14 14 90 0 1 14 -14" fill="#dfc27d" stroke="#dfc27d" stroke-width="0"/>
	<path d="M 685 517.0 v 11 a 14 14 90 0 1 -14 14 H 577 a 14 14 90 0 1 -14 -14 V 517.0 H 122" fill="#f6e8c3" stroke="#f6e8c3" stroke-width="0"/>
	<rect x="563" y="492" width="122" height="50" fill="none" rx="14" stroke="#bf812d" stroke-width="2"/>
	<line x1="563" y1="517" x2="685" y2="517" stroke="#bf812d" stroke-width="1"/>
	<text x="570" y="509.7" fill="#000000" font-family="Verdana" font-size="12">e_is connected to</text>
</g>

<!-- Association e_is created by -->
<line x1="325" y1="238" x2="325" y2="517" stroke="#bf812d" stroke-width="2"/>
<text x="330.0" y="374" fill="#01665e" font-family="Verdana" font-size="12">0,N</text>
<line x1="624" y1="238" x2="325" y2="517" stroke="#bf812d" stroke-width="2"/>
<text x="538" y="292.711811589" fill="#01665e" font-family="Verdana" font-size="12">1,1</text>
<g id="association-e_is created by">
	<path d="M 365 492 a 14 14 90 0 1 14 14 V 517 h -108 V 506 a 14 14 90 0 1 14 -14" fill="#dfc27d" stroke="#dfc27d" stroke-width="0"/>
	<path d="M 379 517.0 v 11 a 14 14 90 0 1 -14 14 H 285 a 14 14 90 0 1 -14 -14 V 517.0 H 108" fill="#f6e8c3" stroke="#f6e8c3" stroke-width="0"/>
	<rect x="271" y="492" width="108" height="50" fill="none" rx="14" stroke="#bf812d" stroke-width="2"/>
	<line x1="271" y1="517" x2="379" y2="517" stroke="#bf812d" stroke-width="1"/>
	<text x="278" y="509.7" fill="#000000" font-family="Verdana" font-size="12">e_is created by</text>
</g>

<!-- Association is associated to -->
<line x1="471" y1="238" x2="925" y2="517" stroke="#bf812d" stroke-width="2"/>
<text x="528" y="266.704784696" fill="#01665e" font-family="Verdana" font-size="12">0,N</text>
<line x1="624" y1="238" x2="925" y2="517" stroke="#bf812d" stroke-width="2"/>
<text x="689" y="292.306583805" fill="#01665e" font-family="Verdana" font-size="12">1,1</text>
<g id="association-is associated to">
	<path d="M 965 492 a 14 14 90 0 1 14 14 V 517 h -108 V 506 a 14 14 90 0 1 14 -14" fill="#dfc27d" stroke="#dfc27d" stroke-width="0"/>
	<path d="M 979 517.0 v 11 a 14 14 90 0 1 -14 14 H 885 a 14 14 90 0 1 -14 -14 V 517.0 H 108" fill="#f6e8c3" stroke="#f6e8c3" stroke-width="0"/>
	<rect x="871" y="492" width="108" height="50" fill="none" rx="14" stroke="#bf812d" stroke-width="2"/>
	<line x1="871" y1="517" x2="979" y2="517" stroke="#bf812d" stroke-width="1"/>
	<text x="878" y="509.7" fill="#000000" font-family="Verdana" font-size="12">is associated to</text>
</g>

<!-- Association e_is joint for -->
<line x1="1069" y1="238" x2="1475" y2="517" stroke="#bf812d" stroke-width="2"/>
<text x="1125" y="270.29486695" fill="#01665e" font-family="Verdana" font-size="12">0,1</text>
<line x1="624" y1="238" x2="1475" y2="517" stroke="#bf812d" stroke-width="2"/>
<text x="689" y="252.225721831" fill="#01665e" font-family="Verdana" font-size="12">1,1</text>
<g id="association-e_is joint for">
	<path d="M 1507 492 a 14 14 90 0 1 14 14 V 517 h -92 V 506 a 14 14 90 0 1 14 -14" fill="#dfc27d" stroke="#dfc27d" stroke-width="0"/>
	<path d="M 1521 517.0 v 11 a 14 14 90 0 1 -14 14 H 1443 a 14 14 90 0 1 -14 -14 V 517.0 H 92" fill="#f6e8c3" stroke="#f6e8c3" stroke-width="0"/>
	<rect x="1429" y="492" width="92" height="50" fill="none" rx="14" stroke="#bf812d" stroke-width="2"/>
	<line x1="1429" y1="517" x2="1521" y2="517" stroke="#bf812d" stroke-width="1"/>
	<text x="1436" y="509.7" fill="#000000" font-family="Verdana" font-size="12">e_is joint for</text>
</g>

<!-- Association e_has participation to -->
<line x1="624" y1="238" x2="1764" y2="517" stroke="#bf812d" stroke-width="2"/>
<text x="689" y="246.567837424" fill="#01665e" font-family="Verdana" font-size="12">0,N</text>
<line x1="1352" y1="238" x2="1764" y2="517" stroke="#bf812d" stroke-width="2"/>
<text x="1368.09852569" y="280" fill="#01665e" font-family="Verdana" font-size="12">1,1</text>
<g id="association-e_has participation to">
	<path d="M 1823 492 a 14 14 90 0 1 14 14 V 517 h -146 V 506 a 14 14 90 0 1 14 -14" fill="#dfc27d" stroke="#dfc27d" stroke-width="0"/>
	<path d="M 1837 517.0 v 11 a 14 14 90 0 1 -14 14 H 1705 a 14 14 90 0 1 -14 -14 V 517.0 H 146" fill="#f6e8c3" stroke="#f6e8c3" stroke-width="0"/>
	<rect x="1691" y="492" width="146" height="50" fill="none" rx="14" stroke="#bf812d" stroke-width="2"/>
	<line x1="1691" y1="517" x2="1837" y2="517" stroke="#bf812d" stroke-width="1"/>
	<text x="1698" y="509.7" fill="#000000" font-family="Verdana" font-size="12">e_has participation to</text>
</g>

<!-- Association s_is joint for -->
<line x1="1069" y1="238" x2="1352" y2="517" stroke="#bf812d" stroke-width="2"/>
<text x="1092.60197865" y="297" fill="#01665e" font-family="Verdana" font-size="12">0,1</text>
<line x1="471" y1="238" x2="1352" y2="517" stroke="#bf812d" stroke-width="2"/>
<text x="528" y="248.932396373" fill="#01665e" font-family="Verdana" font-size="12">1,1</text>
<g id="association-s_is joint for">
	<path d="M 1383 492 a 14 14 90 0 1 14 14 V 517 h -90 V 506 a 14 14 90 0 1 14 -14" fill="#dfc27d" stroke="#dfc27d" stroke-width="0"/>
	<path d="M 1397 517.0 v 11 a 14 14 90 0 1 -14 14 H 1321 a 14 14 90 0 1 -14 -14 V 517.0 H 90" fill="#f6e8c3" stroke="#f6e8c3" stroke-width="0"/>
	<rect x="1307" y="492" width="90" height="50" fill="none" rx="14" stroke="#bf812d" stroke-width="2"/>
	<line x1="1307" y1="517" x2="1397" y2="517" stroke="#bf812d" stroke-width="1"/>
	<text x="1314" y="509.7" fill="#000000" font-family="Verdana" font-size="12">s_is joint for</text>
</g>

<!-- Entity COMMENT -->
<g id="entity-COMMENT">
	<g id="frame-COMMENT">
		<rect x="735" y="145" width="86" height="25" fill="#80cdc1" stroke="#80cdc1" stroke-width="0"/>
		<rect x="735" y="170.0" width="86" height="161" fill="#c7eae5" stroke="#c7eae5" stroke-width="0"/>
		<rect x="735" y="145" width="86" height="186" fill="none" stroke="#35978f" stroke-width="2"/>
		<line x1="735" y1="170" x2="821" y2="170" stroke="#35978f" stroke-width="1"/>
	</g>
	<text x="746" y="162.7" fill="#000000" font-family="Verdana" font-size="12">COMMENT</text>
	<text x="740" y="187.7" fill="#000000" font-family="Verdana" font-size="12">title</text>
	<line x1="740" y1="190" x2="764" y2="190" stroke="#000000" stroke-width="1"/>
	<text x="740" y="204.7" fill="#000000" font-family="Verdana" font-size="12">content</text>
	<text x="740" y="221.7" fill="#000000" font-family="Verdana" font-size="12">rate</text>
	<text x="740" y="238.8" fill="#000000" font-family="Verdana" font-size="12">image</text>
	<text x="740" y="255.8" fill="#000000" font-family="Verdana" font-size="12">label_type</text>
	<text x="740" y="272.8" fill="#000000" font-family="Verdana" font-size="12">status</text>
	<text x="740" y="289.8" fill="#000000" font-family="Verdana" font-size="12">created At</text>
	<text x="740" y="306.8" fill="#000000" font-family="Verdana" font-size="12">updated At</text>
	<text x="740" y="323.8" fill="#000000" font-family="Verdana" font-size="12">published At</text>
</g>

<!-- Entity CATEGORY -->
<g id="entity-CATEGORY">
	<g id="frame-CATEGORY">
		<rect x="886" y="196" width="78" height="25" fill="#80cdc1" stroke="#80cdc1" stroke-width="0"/>
		<rect x="886" y="221.0" width="78" height="59" fill="#c7eae5" stroke="#c7eae5" stroke-width="0"/>
		<rect x="886" y="196" width="78" height="84" fill="none" stroke="#35978f" stroke-width="2"/>
		<line x1="886" y1="221" x2="964" y2="221" stroke="#35978f" stroke-width="1"/>
	</g>
	<text x="891" y="213.7" fill="#000000" font-family="Verdana" font-size="12">CATEGORY</text>
	<text x="891" y="238.8" fill="#000000" font-family="Verdana" font-size="12">title</text>
	<line x1="891" y1="241" x2="915" y2="241" stroke="#000000" stroke-width="1"/>
	<text x="891" y="255.8" fill="#000000" font-family="Verdana" font-size="12">created At</text>
	<text x="891" y="272.8" fill="#000000" font-family="Verdana" font-size="12">updated At</text>
</g>

<!-- Entity DEPARTEMENT -->
<g id="entity-DEPARTEMENT">
	<g id="frame-DEPARTEMENT">
		<rect x="1018" y="196" width="102" height="25" fill="#80cdc1" stroke="#80cdc1" stroke-width="0"/>
		<rect x="1018" y="221.0" width="102" height="59" fill="#c7eae5" stroke="#c7eae5" stroke-width="0"/>
		<rect x="1018" y="196" width="102" height="84" fill="none" stroke="#35978f" stroke-width="2"/>
		<line x1="1018" y1="221" x2="1120" y2="221" stroke="#35978f" stroke-width="1"/>
	</g>
	<text x="1023" y="213.7" fill="#000000" font-family="Verdana" font-size="12">DEPARTEMENT</text>
	<text x="1023" y="238.8" fill="#000000" font-family="Verdana" font-size="12">title</text>
	<line x1="1023" y1="241" x2="1047" y2="241" stroke="#000000" stroke-width="1"/>
	<text x="1023" y="255.8" fill="#000000" font-family="Verdana" font-size="12">created At</text>
	<text x="1023" y="272.8" fill="#000000" font-family="Verdana" font-size="12">updated At</text>
</g>

<!-- Entity SPOT -->
<g id="entity-SPOT">
	<g id="frame-SPOT">
		<rect x="419" y="9" width="104" height="25" fill="#80cdc1" stroke="#80cdc1" stroke-width="0"/>
		<rect x="419" y="34.0" width="104" height="433" fill="#c7eae5" stroke="#c7eae5" stroke-width="0"/>
		<rect x="419" y="9" width="104" height="458" fill="none" stroke="#35978f" stroke-width="2"/>
		<line x1="419" y1="34" x2="523" y2="34" stroke="#35978f" stroke-width="1"/>
	</g>
	<text x="454" y="26.7" fill="#000000" font-family="Verdana" font-size="12">SPOT</text>
	<text x="424" y="51.7" fill="#000000" font-family="Verdana" font-size="12">title</text>
	<line x1="424" y1="54" x2="448" y2="54" stroke="#000000" stroke-width="1"/>
	<text x="424" y="68.7" fill="#000000" font-family="Verdana" font-size="12">image</text>
	<text x="424" y="85.7" fill="#000000" font-family="Verdana" font-size="12">description</text>
	<text x="424" y="102.7" fill="#000000" font-family="Verdana" font-size="12">adress</text>
	<text x="424" y="119.7" fill="#000000" font-family="Verdana" font-size="12">city</text>
	<text x="424" y="136.7" fill="#000000" font-family="Verdana" font-size="12">longitude</text>
	<text x="424" y="153.7" fill="#000000" font-family="Verdana" font-size="12">latitude</text>
	<text x="424" y="170.7" fill="#000000" font-family="Verdana" font-size="12">opening_hours</text>
	<text x="424" y="187.7" fill="#000000" font-family="Verdana" font-size="12">closed_hours</text>
	<text x="424" y="204.7" fill="#000000" font-family="Verdana" font-size="12">saison_date</text>
	<text x="424" y="221.7" fill="#000000" font-family="Verdana" font-size="12">numbers_user</text>
	<text x="424" y="238.8" fill="#000000" font-family="Verdana" font-size="12">average_rating</text>
	<text x="424" y="255.8" fill="#000000" font-family="Verdana" font-size="12">difficulty</text>
	<text x="424" y="272.8" fill="#000000" font-family="Verdana" font-size="12">link</text>
	<text x="424" y="289.8" fill="#000000" font-family="Verdana" font-size="12">price</text>
	<text x="424" y="306.8" fill="#000000" font-family="Verdana" font-size="12">accessibility</text>
	<text x="424" y="323.8" fill="#000000" font-family="Verdana" font-size="12">s_like</text>
	<text x="424" y="340.8" fill="#000000" font-family="Verdana" font-size="12">d_positif</text>
	<text x="424" y="357.8" fill="#000000" font-family="Verdana" font-size="12">d_negatif</text>
	<text x="424" y="374.8" fill="#000000" font-family="Verdana" font-size="12">track_number</text>
	<text x="424" y="391.8" fill="#000000" font-family="Verdana" font-size="12">type_spot</text>
	<text x="424" y="408.8" fill="#000000" font-family="Verdana" font-size="12">status</text>
	<text x="424" y="425.8" fill="#000000" font-family="Verdana" font-size="12">created At</text>
	<text x="424" y="442.8" fill="#000000" font-family="Verdana" font-size="12">updated At</text>
	<text x="424" y="459.8" fill="#000000" font-family="Verdana" font-size="12">published At</text>
</g>

<!-- Entity USER -->
<g id="entity-USER">
	<g id="frame-USER">
		<rect x="280" y="119" width="90" height="25" fill="#80cdc1" stroke="#80cdc1" stroke-width="0"/>
		<rect x="280" y="144.0" width="90" height="213" fill="#c7eae5" stroke="#c7eae5" stroke-width="0"/>
		<rect x="280" y="119" width="90" height="238" fill="none" stroke="#35978f" stroke-width="2"/>
		<line x1="280" y1="144" x2="370" y2="144" stroke="#35978f" stroke-width="1"/>
	</g>
	<text x="308" y="136.7" fill="#000000" font-family="Verdana" font-size="12">USER</text>
	<text x="285" y="161.7" fill="#000000" font-family="Verdana" font-size="12">pseudo</text>
	<line x1="285" y1="164" x2="329" y2="164" stroke="#000000" stroke-width="1"/>
	<text x="285" y="178.7" fill="#000000" font-family="Verdana" font-size="12">avatar</text>
	<text x="285" y="195.7" fill="#000000" font-family="Verdana" font-size="12">firstname</text>
	<text x="285" y="212.7" fill="#000000" font-family="Verdana" font-size="12">lastname</text>
	<text x="285" y="229.7" fill="#000000" font-family="Verdana" font-size="12">email</text>
	<text x="285" y="246.8" fill="#000000" font-family="Verdana" font-size="12">password</text>
	<text x="285" y="263.8" fill="#000000" font-family="Verdana" font-size="12">presentation</text>
	<text x="285" y="280.8" fill="#000000" font-family="Verdana" font-size="12">city</text>
	<text x="285" y="297.8" fill="#000000" font-family="Verdana" font-size="12">departement</text>
	<text x="285" y="314.8" fill="#000000" font-family="Verdana" font-size="12">equipement</text>
	<text x="285" y="331.8" fill="#000000" font-family="Verdana" font-size="12">created At</text>
	<text x="285" y="348.8" fill="#000000" font-family="Verdana" font-size="12">updated At</text>
</g>

<!-- Entity EVENT -->
<g id="entity-EVENT">
	<g id="frame-EVENT">
		<rect x="564" y="77" width="120" height="25" fill="#80cdc1" stroke="#80cdc1" stroke-width="0"/>
		<rect x="564" y="102.0" width="120" height="297" fill="#c7eae5" stroke="#c7eae5" stroke-width="0"/>
		<rect x="564" y="77" width="120" height="322" fill="none" stroke="#35978f" stroke-width="2"/>
		<line x1="564" y1="102" x2="684" y2="102" stroke="#35978f" stroke-width="1"/>
	</g>
	<text x="603" y="94.7" fill="#000000" font-family="Verdana" font-size="12">EVENT</text>
	<text x="569" y="119.7" fill="#000000" font-family="Verdana" font-size="12">title</text>
	<line x1="569" y1="122" x2="593" y2="122" stroke="#000000" stroke-width="1"/>
	<text x="569" y="136.7" fill="#000000" font-family="Verdana" font-size="12">image</text>
	<text x="569" y="153.7" fill="#000000" font-family="Verdana" font-size="12">description</text>
	<text x="569" y="170.7" fill="#000000" font-family="Verdana" font-size="12">opening_hours</text>
	<text x="569" y="187.7" fill="#000000" font-family="Verdana" font-size="12">closed_hours</text>
	<text x="569" y="204.7" fill="#000000" font-family="Verdana" font-size="12">date_event</text>
	<text x="569" y="221.7" fill="#000000" font-family="Verdana" font-size="12">difficulty</text>
	<text x="569" y="238.8" fill="#000000" font-family="Verdana" font-size="12">link</text>
	<text x="569" y="255.8" fill="#000000" font-family="Verdana" font-size="12">price</text>
	<text x="569" y="272.8" fill="#000000" font-family="Verdana" font-size="12">accessibility</text>
	<text x="569" y="289.8" fill="#000000" font-family="Verdana" font-size="12">participation_user</text>
	<text x="569" y="306.8" fill="#000000" font-family="Verdana" font-size="12">e_like</text>
	<text x="569" y="323.8" fill="#000000" font-family="Verdana" font-size="12">type_event</text>
	<text x="569" y="340.8" fill="#000000" font-family="Verdana" font-size="12">status</text>
	<text x="569" y="357.8" fill="#000000" font-family="Verdana" font-size="12">created At</text>
	<text x="569" y="374.8" fill="#000000" font-family="Verdana" font-size="12">updated At</text>
	<text x="569" y="391.8" fill="#000000" font-family="Verdana" font-size="12">published At</text>
</g>

<!-- Entity PARTICIPATION -->
<g id="entity-PARTICIPATION">
	<g id="frame-PARTICIPATION">
		<rect x="1298" y="213" width="108" height="25" fill="#80cdc1" stroke="#80cdc1" stroke-width="0"/>
		<rect x="1298" y="238.0" width="108" height="25" fill="#c7eae5" stroke="#c7eae5" stroke-width="0"/>
		<rect x="1298" y="213" width="108" height="50" fill="none" stroke="#35978f" stroke-width="2"/>
		<line x1="1298" y1="238" x2="1406" y2="238" stroke="#35978f" stroke-width="1"/>
	</g>
	<text x="1303" y="230.7" fill="#000000" font-family="Verdana" font-size="12">PARTICIPATION</text>
	<text x="1303" y="255.8" fill="#000000" font-family="Verdana" font-size="12">status</text>
	<line x1="1303" y1="258" x2="1341" y2="258" stroke="#000000" stroke-width="1"/>
</g>

<!-- Entity CONCTACTUS -->
<g id="entity-CONCTACTUS">
	<g id="frame-CONCTACTUS">
		<rect x="1169" y="179" width="96" height="25" fill="#80cdc1" stroke="#80cdc1" stroke-width="0"/>
		<rect x="1169" y="204.0" width="96" height="93" fill="#c7eae5" stroke="#c7eae5" stroke-width="0"/>
		<rect x="1169" y="179" width="96" height="118" fill="none" stroke="#35978f" stroke-width="2"/>
		<line x1="1169" y1="204" x2="1265" y2="204" stroke="#35978f" stroke-width="1"/>
	</g>
	<text x="1174" y="196.7" fill="#000000" font-family="Verdana" font-size="12">CONCTACTUS</text>
	<text x="1174" y="221.7" fill="#000000" font-family="Verdana" font-size="12">firstname</text>
	<line x1="1174" y1="224" x2="1232" y2="224" stroke="#000000" stroke-width="1"/>
	<text x="1174" y="238.8" fill="#000000" font-family="Verdana" font-size="12">lastname</text>
	<text x="1174" y="255.8" fill="#000000" font-family="Verdana" font-size="12">email</text>
	<text x="1174" y="272.8" fill="#000000" font-family="Verdana" font-size="12">content</text>
	<text x="1174" y="289.8" fill="#000000" font-family="Verdana" font-size="12">created At</text>
</g>
</svg>