<?xml version="1.0" standalone="no"?>
<!DOCTYPE svg PUBLIC "-//W3C//DTD SVG 1.1//EN"
"http://www.w3.org/Graphics/SVG/1.1/DTD/svg11.dtd">

<svg width="1898" height="517" view_box="0 0 1898 517"
xmlns="http://www.w3.org/2000/svg"
xmlns:link="http://www.w3.org/1999/xlink">\n\n<desc>Généré par Mocodo 2.3.7 le Mon, 20 Sep 2021 02:08:53</desc>

<rect id="frame" x="0" y="0" width="1898" height="517" fill="#ffffff" stroke="none" stroke-width="0"/>

<!-- Association is written by -->
<line x1="325" y1="221" x2="54" y2="483" stroke="#d6604d" stroke-width="2"/>
<text x="216" y="299.178922919" fill="#4d4d4d" font-family="Verdana" font-size="12">0,N</text>
<line x1="830" y1="221" x2="54" y2="483" stroke="#d6604d" stroke-width="2"/>
<text x="761" y="230.151514783" fill="#4d4d4d" font-family="Verdana" font-size="12">1,1</text>
<g id="association-is written by">
	<path d="M 85 458 a 14 14 90 0 1 14 14 V 483 h -90 V 472 a 14 14 90 0 1 14 -14" fill="#f4a582" stroke="#f4a582" stroke-width="0"/>
	<path d="M 99 483.0 v 11 a 14 14 90 0 1 -14 14 H 23 a 14 14 90 0 1 -14 -14 V 483.0 H 90" fill="#fddbc7" stroke="#fddbc7" stroke-width="0"/>
	<rect x="9" y="458" width="90" height="50" fill="none" rx="14" stroke="#d6604d" stroke-width="2"/>
	<line x1="9" y1="483" x2="99" y2="483" stroke="#d6604d" stroke-width="1"/>
	<text x="16" y="475.7" fill="#000000" font-family="Verdana" font-size="12">is written by</text>
</g>

<!-- Association u_is connected to -->
<line x1="977" y1="221" x2="830" y2="483" stroke="#d6604d" stroke-width="2"/>
<text x="954.070862689" y="280" fill="#4d4d4d" font-family="Verdana" font-size="12">0,N</text>
<line x1="325" y1="221" x2="830" y2="483" stroke="#d6604d" stroke-width="2"/>
<text x="412" y="259.593368314" fill="#4d4d4d" font-family="Verdana" font-size="12">0,N</text>
<g id="association-u_is connected to">
	<path d="M 877 458 a 14 14 90 0 1 14 14 V 483 h -122 V 472 a 14 14 90 0 1 14 -14" fill="#f4a582" stroke="#f4a582" stroke-width="0"/>
	<path d="M 891 483.0 v 11 a 14 14 90 0 1 -14 14 H 783 a 14 14 90 0 1 -14 -14 V 483.0 H 122" fill="#fddbc7" stroke="#fddbc7" stroke-width="0"/>
	<rect x="769" y="458" width="122" height="50" fill="none" rx="14" stroke="#d6604d" stroke-width="2"/>
	<line x1="769" y1="483" x2="891" y2="483" stroke="#d6604d" stroke-width="1"/>
	<text x="776" y="475.7" fill="#000000" font-family="Verdana" font-size="12">u_is connected to</text>
</g>

<!-- Association s_is created by -->
<line x1="325" y1="221" x2="185" y2="483" stroke="#d6604d" stroke-width="2"/>
<text x="267.054383828" y="348" fill="#4d4d4d" font-family="Verdana" font-size="12">0,N</text>
<line x1="513" y1="221" x2="185" y2="483" stroke="#d6604d" stroke-width="2"/>
<text x="413" y="278.069056838" fill="#4d4d4d" font-family="Verdana" font-size="12">1,1</text>
<g id="association-s_is created by">
	<path d="M 225 458 a 14 14 90 0 1 14 14 V 483 h -108 V 472 a 14 14 90 0 1 14 -14" fill="#f4a582" stroke="#f4a582" stroke-width="0"/>
	<path d="M 239 483.0 v 11 a 14 14 90 0 1 -14 14 H 145 a 14 14 90 0 1 -14 -14 V 483.0 H 108" fill="#fddbc7" stroke="#fddbc7" stroke-width="0"/>
	<rect x="131" y="458" width="108" height="50" fill="none" rx="14" stroke="#d6604d" stroke-width="2"/>
	<line x1="131" y1="483" x2="239" y2="483" stroke="#d6604d" stroke-width="1"/>
	<text x="138" y="475.7" fill="#000000" font-family="Verdana" font-size="12">s_is created by</text>
</g>

<!-- Association u_participed to -->
<line x1="325" y1="221" x2="1658" y2="483" stroke="#d6604d" stroke-width="2"/>
<text x="412" y="230.61348458" fill="#4d4d4d" font-family="Verdana" font-size="12">0,N</text>
<line x1="1404" y1="221" x2="1658" y2="483" stroke="#d6604d" stroke-width="2"/>
<text x="1409.15262258" y="263" fill="#4d4d4d" font-family="Verdana" font-size="12">1,1</text>
<g id="association-u_participed to">
	<path d="M 1697 458 a 14 14 90 0 1 14 14 V 483 h -106 V 472 a 14 14 90 0 1 14 -14" fill="#f4a582" stroke="#f4a582" stroke-width="0"/>
	<path d="M 1711 483.0 v 11 a 14 14 90 0 1 -14 14 H 1619 a 14 14 90 0 1 -14 -14 V 483.0 H 106" fill="#fddbc7" stroke="#fddbc7" stroke-width="0"/>
	<rect x="1605" y="458" width="106" height="50" fill="none" rx="14" stroke="#d6604d" stroke-width="2"/>
	<line x1="1605" y1="483" x2="1711" y2="483" stroke="#d6604d" stroke-width="1"/>
	<text x="1612" y="475.7" fill="#000000" font-family="Verdana" font-size="12">u_participed to</text>
</g>

<!-- Association s_is connected to -->
<line x1="977" y1="221" x2="513" y2="483" stroke="#d6604d" stroke-width="2"/>
<text x="911" y="239.412032553" fill="#4d4d4d" font-family="Verdana" font-size="12">0,N</text>
<line x1="513" y1="221" x2="513" y2="483" stroke="#d6604d" stroke-width="2"/>
<text x="518.0" y="450" fill="#4d4d4d" font-family="Verdana" font-size="12">1,N</text>
<g id="association-s_is connected to">
	<path d="M 559 458 a 14 14 90 0 1 14 14 V 483 h -120 V 472 a 14 14 90 0 1 14 -14" fill="#f4a582" stroke="#f4a582" stroke-width="0"/>
	<path d="M 573 483.0 v 11 a 14 14 90 0 1 -14 14 H 467 a 14 14 90 0 1 -14 -14 V 483.0 H 120" fill="#fddbc7" stroke="#fddbc7" stroke-width="0"/>
	<rect x="453" y="458" width="120" height="50" fill="none" rx="14" stroke="#d6604d" stroke-width="2"/>
	<line x1="453" y1="483" x2="573" y2="483" stroke="#d6604d" stroke-width="1"/>
	<text x="460" y="475.7" fill="#000000" font-family="Verdana" font-size="12">s_is connected to</text>
</g>

<!-- Association cs_is created for -->
<line x1="830" y1="221" x2="1121" y2="483" stroke="#d6604d" stroke-width="2"/>
<text x="878" y="258.262088963" fill="#4d4d4d" font-family="Verdana" font-size="12">1,1</text>
<line x1="513" y1="221" x2="1121" y2="483" stroke="#d6604d" stroke-width="2"/>
<text x="592" y="248.263708688" fill="#4d4d4d" font-family="Verdana" font-size="12">0,N</text>
<g id="association-cs_is created for">
	<path d="M 1165 458 a 14 14 90 0 1 14 14 V 483 h -116 V 472 a 14 14 90 0 1 14 -14" fill="#f4a582" stroke="#f4a582" stroke-width="0"/>
	<path d="M 1179 483.0 v 11 a 14 14 90 0 1 -14 14 H 1077 a 14 14 90 0 1 -14 -14 V 483.0 H 116" fill="#fddbc7" stroke="#fddbc7" stroke-width="0"/>
	<rect x="1063" y="458" width="116" height="50" fill="none" rx="14" stroke="#d6604d" stroke-width="2"/>
	<line x1="1063" y1="483" x2="1179" y2="483" stroke="#d6604d" stroke-width="1"/>
	<text x="1070" y="475.7" fill="#000000" font-family="Verdana" font-size="12">cs_is created for</text>
</g>

<!-- Association ce_is created for -->
<line x1="830" y1="221" x2="1269" y2="483" stroke="#d6604d" stroke-width="2"/>
<text x="878" y="243.285763199" fill="#4d4d4d" font-family="Verdana" font-size="12">1,1</text>
<line x1="676" y1="221" x2="1269" y2="483" stroke="#d6604d" stroke-width="2"/>
<text x="738" y="241.644598738" fill="#4d4d4d" font-family="Verdana" font-size="12">0,N</text>
<g id="association-ce_is created for">
	<path d="M 1313 458 a 14 14 90 0 1 14 14 V 483 h -116 V 472 a 14 14 90 0 1 14 -14" fill="#f4a582" stroke="#f4a582" stroke-width="0"/>
	<path d="M 1327 483.0 v 11 a 14 14 90 0 1 -14 14 H 1225 a 14 14 90 0 1 -14 -14 V 483.0 H 116" fill="#fddbc7" stroke="#fddbc7" stroke-width="0"/>
	<rect x="1211" y="458" width="116" height="50" fill="none" rx="14" stroke="#d6604d" stroke-width="2"/>
	<line x1="1211" y1="483" x2="1327" y2="483" stroke="#d6604d" stroke-width="1"/>
	<text x="1218" y="475.7" fill="#000000" font-family="Verdana" font-size="12">ce_is created for</text>
</g>

<!-- Association e_is connected to -->
<line x1="977" y1="221" x2="676" y2="483" stroke="#d6604d" stroke-width="2"/>
<text x="911" y="253.326788968" fill="#4d4d4d" font-family="Verdana" font-size="12">0,N</text>
<line x1="676" y1="221" x2="676" y2="483" stroke="#d6604d" stroke-width="2"/>
<text x="681.0" y="391" fill="#4d4d4d" font-family="Verdana" font-size="12">1,N</text>
<g id="association-e_is connected to">
	<path d="M 723 458 a 14 14 90 0 1 14 14 V 483 h -122 V 472 a 14 14 90 0 1 14 -14" fill="#f4a582" stroke="#f4a582" stroke-width="0"/>
	<path d="M 737 483.0 v 11 a 14 14 90 0 1 -14 14 H 629 a 14 14 90 0 1 -14 -14 V 483.0 H 122" fill="#fddbc7" stroke="#fddbc7" stroke-width="0"/>
	<rect x="615" y="458" width="122" height="50" fill="none" rx="14" stroke="#d6604d" stroke-width="2"/>
	<line x1="615" y1="483" x2="737" y2="483" stroke="#d6604d" stroke-width="1"/>
	<text x="622" y="475.7" fill="#000000" font-family="Verdana" font-size="12">e_is connected to</text>
</g>

<!-- Association e_is created by -->
<line x1="325" y1="221" x2="325" y2="483" stroke="#d6604d" stroke-width="2"/>
<text x="330.0" y="348" fill="#4d4d4d" font-family="Verdana" font-size="12">0,N</text>
<line x1="676" y1="221" x2="325" y2="483" stroke="#d6604d" stroke-width="2"/>
<text x="593" y="261.181210922" fill="#4d4d4d" font-family="Verdana" font-size="12">1,1</text>
<g id="association-e_is created by">
	<path d="M 365 458 a 14 14 90 0 1 14 14 V 483 h -108 V 472 a 14 14 90 0 1 14 -14" fill="#f4a582" stroke="#f4a582" stroke-width="0"/>
	<path d="M 379 483.0 v 11 a 14 14 90 0 1 -14 14 H 285 a 14 14 90 0 1 -14 -14 V 483.0 H 108" fill="#fddbc7" stroke="#fddbc7" stroke-width="0"/>
	<rect x="271" y="458" width="108" height="50" fill="none" rx="14" stroke="#d6604d" stroke-width="2"/>
	<line x1="271" y1="483" x2="379" y2="483" stroke="#d6604d" stroke-width="1"/>
	<text x="278" y="475.7" fill="#000000" font-family="Verdana" font-size="12">e_is created by</text>
</g>

<!-- Association is associated to -->
<line x1="513" y1="221" x2="977" y2="483" stroke="#d6604d" stroke-width="2"/>
<text x="592" y="259.174963587" fill="#4d4d4d" font-family="Verdana" font-size="12">0,N</text>
<line x1="676" y1="221" x2="977" y2="483" stroke="#d6604d" stroke-width="2"/>
<text x="738" y="268.994563055" fill="#4d4d4d" font-family="Verdana" font-size="12">1,1</text>
<g id="association-is associated to">
	<path d="M 1017 458 a 14 14 90 0 1 14 14 V 483 h -108 V 472 a 14 14 90 0 1 14 -14" fill="#f4a582" stroke="#f4a582" stroke-width="0"/>
	<path d="M 1031 483.0 v 11 a 14 14 90 0 1 -14 14 H 937 a 14 14 90 0 1 -14 -14 V 483.0 H 108" fill="#fddbc7" stroke="#fddbc7" stroke-width="0"/>
	<rect x="923" y="458" width="108" height="50" fill="none" rx="14" stroke="#d6604d" stroke-width="2"/>
	<line x1="923" y1="483" x2="1031" y2="483" stroke="#d6604d" stroke-width="1"/>
	<text x="930" y="475.7" fill="#000000" font-family="Verdana" font-size="12">is associated to</text>
</g>

<!-- Association e_is joint for -->
<line x1="1121" y1="221" x2="1527" y2="483" stroke="#d6604d" stroke-width="2"/>
<text x="1177" y="250.875068285" fill="#4d4d4d" font-family="Verdana" font-size="12">0,1</text>
<line x1="676" y1="221" x2="1527" y2="483" stroke="#d6604d" stroke-width="2"/>
<text x="738" y="232.942393353" fill="#4d4d4d" font-family="Verdana" font-size="12">1,1</text>
<g id="association-e_is joint for">
	<path d="M 1559 458 a 14 14 90 0 1 14 14 V 483 h -92 V 472 a 14 14 90 0 1 14 -14" fill="#f4a582" stroke="#f4a582" stroke-width="0"/>
	<path d="M 1573 483.0 v 11 a 14 14 90 0 1 -14 14 H 1495 a 14 14 90 0 1 -14 -14 V 483.0 H 92" fill="#fddbc7" stroke="#fddbc7" stroke-width="0"/>
	<rect x="1481" y="458" width="92" height="50" fill="none" rx="14" stroke="#d6604d" stroke-width="2"/>
	<line x1="1481" y1="483" x2="1573" y2="483" stroke="#d6604d" stroke-width="1"/>
	<text x="1488" y="475.7" fill="#000000" font-family="Verdana" font-size="12">e_is joint for</text>
</g>

<!-- Association e_has participation to -->
<line x1="676" y1="221" x2="1816" y2="483" stroke="#d6604d" stroke-width="2"/>
<text x="738" y="227.86345632" fill="#4d4d4d" font-family="Verdana" font-size="12">0,N</text>
<line x1="1404" y1="221" x2="1816" y2="483" stroke="#d6604d" stroke-width="2"/>
<text x="1422.21162658" y="263" fill="#4d4d4d" font-family="Verdana" font-size="12">1,1</text>
<g id="association-e_has participation to">
	<path d="M 1875 458 a 14 14 90 0 1 14 14 V 483 h -146 V 472 a 14 14 90 0 1 14 -14" fill="#f4a582" stroke="#f4a582" stroke-width="0"/>
	<path d="M 1889 483.0 v 11 a 14 14 90 0 1 -14 14 H 1757 a 14 14 90 0 1 -14 -14 V 483.0 H 146" fill="#fddbc7" stroke="#fddbc7" stroke-width="0"/>
	<rect x="1743" y="458" width="146" height="50" fill="none" rx="14" stroke="#d6604d" stroke-width="2"/>
	<line x1="1743" y1="483" x2="1889" y2="483" stroke="#d6604d" stroke-width="1"/>
	<text x="1750" y="475.7" fill="#000000" font-family="Verdana" font-size="12">e_has participation to</text>
</g>

<!-- Association s_is joint for -->
<line x1="1121" y1="221" x2="1404" y2="483" stroke="#d6604d" stroke-width="2"/>
<text x="1147.05238053" y="280" fill="#4d4d4d" font-family="Verdana" font-size="12">0,1</text>
<line x1="513" y1="221" x2="1404" y2="483" stroke="#d6604d" stroke-width="2"/>
<text x="592" y="237.041811608" fill="#4d4d4d" font-family="Verdana" font-size="12">1,1</text>
<g id="association-s_is joint for">
	<path d="M 1435 458 a 14 14 90 0 1 14 14 V 483 h -90 V 472 a 14 14 90 0 1 14 -14" fill="#f4a582" stroke="#f4a582" stroke-width="0"/>
	<path d="M 1449 483.0 v 11 a 14 14 90 0 1 -14 14 H 1373 a 14 14 90 0 1 -14 -14 V 483.0 H 90" fill="#fddbc7" stroke="#fddbc7" stroke-width="0"/>
	<rect x="1359" y="458" width="90" height="50" fill="none" rx="14" stroke="#d6604d" stroke-width="2"/>
	<line x1="1359" y1="483" x2="1449" y2="483" stroke="#d6604d" stroke-width="1"/>
	<text x="1366" y="475.7" fill="#000000" font-family="Verdana" font-size="12">s_is joint for</text>
</g>

<!-- Entity COMMENT -->
<g id="entity-COMMENT">
	<g id="frame-COMMENT">
		<rect x="787" y="128" width="86" height="25" fill="#bababa" stroke="#bababa" stroke-width="0"/>
		<rect x="787" y="153.0" width="86" height="161" fill="#e0e0e0" stroke="#e0e0e0" stroke-width="0"/>
		<rect x="787" y="128" width="86" height="186" fill="none" stroke="#878787" stroke-width="2"/>
		<line x1="787" y1="153" x2="873" y2="153" stroke="#878787" stroke-width="1"/>
	</g>
	<text x="798" y="145.7" fill="#000000" font-family="Verdana" font-size="12">COMMENT</text>
	<text x="792" y="170.7" fill="#000000" font-family="Verdana" font-size="12">title</text>
	<line x1="792" y1="173" x2="816" y2="173" stroke="#000000" stroke-width="1"/>
	<text x="792" y="187.7" fill="#000000" font-family="Verdana" font-size="12">content</text>
	<text x="792" y="204.7" fill="#000000" font-family="Verdana" font-size="12">rate</text>
	<text x="792" y="221.8" fill="#000000" font-family="Verdana" font-size="12">image</text>
	<text x="792" y="238.8" fill="#000000" font-family="Verdana" font-size="12">labeltype</text>
	<text x="792" y="255.8" fill="#000000" font-family="Verdana" font-size="12">status</text>
	<text x="792" y="272.8" fill="#000000" font-family="Verdana" font-size="12">created At</text>
	<text x="792" y="289.8" fill="#000000" font-family="Verdana" font-size="12">updated At</text>
	<text x="792" y="306.8" fill="#000000" font-family="Verdana" font-size="12">published At</text>
</g>

<!-- Entity CATEGORY -->
<g id="entity-CATEGORY">
	<g id="frame-CATEGORY">
		<rect x="938" y="179" width="78" height="25" fill="#bababa" stroke="#bababa" stroke-width="0"/>
		<rect x="938" y="204.0" width="78" height="59" fill="#e0e0e0" stroke="#e0e0e0" stroke-width="0"/>
		<rect x="938" y="179" width="78" height="84" fill="none" stroke="#878787" stroke-width="2"/>
		<line x1="938" y1="204" x2="1016" y2="204" stroke="#878787" stroke-width="1"/>
	</g>
	<text x="943" y="196.7" fill="#000000" font-family="Verdana" font-size="12">CATEGORY</text>
	<text x="943" y="221.8" fill="#000000" font-family="Verdana" font-size="12">title</text>
	<line x1="943" y1="224" x2="967" y2="224" stroke="#000000" stroke-width="1"/>
	<text x="943" y="238.8" fill="#000000" font-family="Verdana" font-size="12">created At</text>
	<text x="943" y="255.8" fill="#000000" font-family="Verdana" font-size="12">updated At</text>
</g>

<!-- Entity DEPARTEMENT -->
<g id="entity-DEPARTEMENT">
	<g id="frame-DEPARTEMENT">
		<rect x="1070" y="179" width="102" height="25" fill="#bababa" stroke="#bababa" stroke-width="0"/>
		<rect x="1070" y="204.0" width="102" height="59" fill="#e0e0e0" stroke="#e0e0e0" stroke-width="0"/>
		<rect x="1070" y="179" width="102" height="84" fill="none" stroke="#878787" stroke-width="2"/>
		<line x1="1070" y1="204" x2="1172" y2="204" stroke="#878787" stroke-width="1"/>
	</g>
	<text x="1075" y="196.7" fill="#000000" font-family="Verdana" font-size="12">DEPARTEMENT</text>
	<text x="1075" y="221.8" fill="#000000" font-family="Verdana" font-size="12">title</text>
	<line x1="1075" y1="224" x2="1099" y2="224" stroke="#000000" stroke-width="1"/>
	<text x="1075" y="238.8" fill="#000000" font-family="Verdana" font-size="12">created At</text>
	<text x="1075" y="255.8" fill="#000000" font-family="Verdana" font-size="12">updated At</text>
</g>

<!-- Entity SPOT -->
<g id="entity-SPOT">
	<g id="frame-SPOT">
		<rect x="439" y="9" width="148" height="25" fill="#bababa" stroke="#bababa" stroke-width="0"/>
		<rect x="439" y="34.0" width="148" height="399" fill="#e0e0e0" stroke="#e0e0e0" stroke-width="0"/>
		<rect x="439" y="9" width="148" height="424" fill="none" stroke="#878787" stroke-width="2"/>
		<line x1="439" y1="34" x2="587" y2="34" stroke="#878787" stroke-width="1"/>
	</g>
	<text x="496" y="26.7" fill="#000000" font-family="Verdana" font-size="12">SPOT</text>
	<text x="444" y="51.7" fill="#000000" font-family="Verdana" font-size="12">title</text>
	<line x1="444" y1="54" x2="468" y2="54" stroke="#000000" stroke-width="1"/>
	<text x="444" y="68.7" fill="#000000" font-family="Verdana" font-size="12">image</text>
	<text x="444" y="85.7" fill="#000000" font-family="Verdana" font-size="12">description</text>
	<text x="444" y="102.7" fill="#000000" font-family="Verdana" font-size="12">adress</text>
	<text x="444" y="119.7" fill="#000000" font-family="Verdana" font-size="12">city</text>
	<text x="444" y="136.7" fill="#000000" font-family="Verdana" font-size="12">longitude</text>
	<text x="444" y="153.7" fill="#000000" font-family="Verdana" font-size="12">latitude</text>
	<text x="444" y="170.7" fill="#000000" font-family="Verdana" font-size="12">openingHours</text>
	<text x="444" y="187.7" fill="#000000" font-family="Verdana" font-size="12">saisonDate</text>
	<text x="444" y="204.7" fill="#000000" font-family="Verdana" font-size="12">numbersUser</text>
	<text x="444" y="221.8" fill="#000000" font-family="Verdana" font-size="12">averageRating</text>
	<text x="444" y="238.8" fill="#000000" font-family="Verdana" font-size="12">difficulty</text>
	<text x="444" y="255.8" fill="#000000" font-family="Verdana" font-size="12">link</text>
	<text x="444" y="272.8" fill="#000000" font-family="Verdana" font-size="12">price</text>
	<text x="444" y="289.8" fill="#000000" font-family="Verdana" font-size="12">accessibility</text>
	<text x="444" y="306.8" fill="#000000" font-family="Verdana" font-size="12">like</text>
	<text x="444" y="323.8" fill="#000000" font-family="Verdana" font-size="12">dPositif</text>
	<text x="444" y="340.8" fill="#000000" font-family="Verdana" font-size="12">dNegatif</text>
	<text x="444" y="357.8" fill="#000000" font-family="Verdana" font-size="12">trackNumber typeSpot</text>
	<text x="444" y="374.8" fill="#000000" font-family="Verdana" font-size="12">status</text>
	<text x="444" y="391.8" fill="#000000" font-family="Verdana" font-size="12">created At</text>
	<text x="444" y="408.8" fill="#000000" font-family="Verdana" font-size="12">updated At</text>
	<text x="444" y="425.8" fill="#000000" font-family="Verdana" font-size="12">published At</text>
</g>

<!-- Entity USER -->
<g id="entity-USER">
	<g id="frame-USER">
		<rect x="243" y="111" width="164" height="25" fill="#bababa" stroke="#bababa" stroke-width="0"/>
		<rect x="243" y="136.0" width="164" height="195" fill="#e0e0e0" stroke="#e0e0e0" stroke-width="0"/>
		<rect x="243" y="111" width="164" height="220" fill="none" stroke="#878787" stroke-width="2"/>
		<line x1="243" y1="136" x2="407" y2="136" stroke="#878787" stroke-width="1"/>
	</g>
	<text x="308" y="128.7" fill="#000000" font-family="Verdana" font-size="12">USER</text>
	<text x="248" y="153.7" fill="#000000" font-family="Verdana" font-size="12">pseudo</text>
	<line x1="248" y1="156" x2="292" y2="156" stroke="#000000" stroke-width="1"/>
	<text x="248" y="170.7" fill="#000000" font-family="Verdana" font-size="12">avatar</text>
	<text x="248" y="187.7" fill="#000000" font-family="Verdana" font-size="12">firstname</text>
	<text x="248" y="204.7" fill="#000000" font-family="Verdana" font-size="12">lastname</text>
	<text x="248" y="221.8" fill="#000000" font-family="Verdana" font-size="12">email</text>
	<text x="248" y="238.8" fill="#000000" font-family="Verdana" font-size="12">password</text>
	<text x="248" y="255.8" fill="#000000" font-family="Verdana" font-size="12">presentation</text>
	<text x="248" y="272.8" fill="#000000" font-family="Verdana" font-size="12">city</text>
	<text x="248" y="289.8" fill="#000000" font-family="Verdana" font-size="12">departement equipement</text>
	<text x="248" y="306.8" fill="#000000" font-family="Verdana" font-size="12">created At</text>
	<text x="248" y="323.8" fill="#000000" font-family="Verdana" font-size="12">updated At</text>
</g>

<!-- Entity EVENT -->
<g id="entity-EVENT">
	<g id="frame-EVENT">
		<rect x="619" y="68" width="114" height="25" fill="#bababa" stroke="#bababa" stroke-width="0"/>
		<rect x="619" y="93.0" width="114" height="281" fill="#e0e0e0" stroke="#e0e0e0" stroke-width="0"/>
		<rect x="619" y="68" width="114" height="306" fill="none" stroke="#878787" stroke-width="2"/>
		<line x1="619" y1="93" x2="733" y2="93" stroke="#878787" stroke-width="1"/>
	</g>
	<text x="655" y="85.7" fill="#000000" font-family="Verdana" font-size="12">EVENT</text>
	<text x="624" y="110.7" fill="#000000" font-family="Verdana" font-size="12">title</text>
	<line x1="624" y1="113" x2="648" y2="113" stroke="#000000" stroke-width="1"/>
	<text x="624" y="127.7" fill="#000000" font-family="Verdana" font-size="12">image</text>
	<text x="624" y="144.7" fill="#000000" font-family="Verdana" font-size="12">description</text>
	<text x="624" y="161.7" fill="#000000" font-family="Verdana" font-size="12">openingHours</text>
	<text x="624" y="178.7" fill="#000000" font-family="Verdana" font-size="12">dateEvent</text>
	<text x="624" y="195.7" fill="#000000" font-family="Verdana" font-size="12">difficulty</text>
	<text x="624" y="212.7" fill="#000000" font-family="Verdana" font-size="12">link</text>
	<text x="624" y="229.8" fill="#000000" font-family="Verdana" font-size="12">price</text>
	<text x="624" y="246.8" fill="#000000" font-family="Verdana" font-size="12">accessibility</text>
	<text x="624" y="263.8" fill="#000000" font-family="Verdana" font-size="12">participationUser</text>
	<text x="624" y="280.8" fill="#000000" font-family="Verdana" font-size="12">like</text>
	<text x="624" y="297.8" fill="#000000" font-family="Verdana" font-size="12">typeEvent</text>
	<text x="624" y="314.8" fill="#000000" font-family="Verdana" font-size="12">status</text>
	<text x="624" y="331.8" fill="#000000" font-family="Verdana" font-size="12">created At</text>
	<text x="624" y="348.8" fill="#000000" font-family="Verdana" font-size="12">updated At</text>
	<text x="624" y="365.8" fill="#000000" font-family="Verdana" font-size="12">published At</text>
</g>

<!-- Entity PARTICIPATION -->
<g id="entity-PARTICIPATION">
	<g id="frame-PARTICIPATION">
		<rect x="1350" y="196" width="108" height="25" fill="#bababa" stroke="#bababa" stroke-width="0"/>
		<rect x="1350" y="221.0" width="108" height="25" fill="#e0e0e0" stroke="#e0e0e0" stroke-width="0"/>
		<rect x="1350" y="196" width="108" height="50" fill="none" stroke="#878787" stroke-width="2"/>
		<line x1="1350" y1="221" x2="1458" y2="221" stroke="#878787" stroke-width="1"/>
	</g>
	<text x="1355" y="213.7" fill="#000000" font-family="Verdana" font-size="12">PARTICIPATION</text>
	<text x="1355" y="238.8" fill="#000000" font-family="Verdana" font-size="12">status</text>
	<line x1="1355" y1="241" x2="1393" y2="241" stroke="#000000" stroke-width="1"/>
</g>

<!-- Entity CONCTACTUS -->
<g id="entity-CONCTACTUS">
	<g id="frame-CONCTACTUS">
		<rect x="1221" y="162" width="96" height="25" fill="#bababa" stroke="#bababa" stroke-width="0"/>
		<rect x="1221" y="187.0" width="96" height="93" fill="#e0e0e0" stroke="#e0e0e0" stroke-width="0"/>
		<rect x="1221" y="162" width="96" height="118" fill="none" stroke="#878787" stroke-width="2"/>
		<line x1="1221" y1="187" x2="1317" y2="187" stroke="#878787" stroke-width="1"/>
	</g>
	<text x="1226" y="179.7" fill="#000000" font-family="Verdana" font-size="12">CONCTACTUS</text>
	<text x="1226" y="204.7" fill="#000000" font-family="Verdana" font-size="12">firstname</text>
	<line x1="1226" y1="207" x2="1284" y2="207" stroke="#000000" stroke-width="1"/>
	<text x="1226" y="221.8" fill="#000000" font-family="Verdana" font-size="12">lastname</text>
	<text x="1226" y="238.8" fill="#000000" font-family="Verdana" font-size="12">email</text>
	<text x="1226" y="255.8" fill="#000000" font-family="Verdana" font-size="12">content</text>
	<text x="1226" y="272.8" fill="#000000" font-family="Verdana" font-size="12">created At</text>
</g>
</svg>